<svg width="32" height="32" viewBox="0 0 32 32" fill="none" xmlns="http://www.w3.org/2000/svg">
<rect opacity="0.12" width="32" height="32" rx="4" fill="#787A80"/>
<path d="M19.7099 8.66907L17.8584 8.66602C15.7782 8.66602 14.434 10.0827 14.434 12.2755V13.9397H12.5724C12.4115 13.9397 12.2812 14.0737 12.2812 14.2389V16.6502C12.2812 16.8154 12.4117 16.9492 12.5724 16.9492H14.434V23.0336C14.434 23.1989 14.5643 23.3327 14.7251 23.3327H17.154C17.3149 23.3327 17.4451 23.1987 17.4451 23.0336V16.9492H19.6218C19.7826 16.9492 19.9129 16.8154 19.9129 16.6502L19.9138 14.2389C19.9138 14.1596 19.8831 14.0836 19.8285 14.0275C19.774 13.9713 19.6998 13.9397 19.6225 13.9397H17.4451V12.5289C17.4451 11.8509 17.6024 11.5066 18.4623 11.5066L19.7096 11.5062C19.8703 11.5062 20.0005 11.3722 20.0005 11.2071V8.96813C20.0005 8.80319 19.8704 8.66937 19.7099 8.66907Z" fill="#787A80"/>
</svg>
