<svg width="32" height="32" viewBox="0 0 32 32" fill="none" xmlns="http://www.w3.org/2000/svg">
<rect opacity="0.12" width="32" height="32" rx="4" fill="#787A80"/>
<path d="M22.6523 13.254C22.6211 12.5456 22.5065 12.0585 22.3424 11.6365C22.1731 11.1885 21.9126 10.7874 21.5714 10.454C21.238 10.1154 20.8342 9.85227 20.3914 9.68562C19.967 9.5215 19.4825 9.40694 18.774 9.3757C18.0603 9.34182 17.8337 9.33398 16.0234 9.33398C14.2132 9.33398 13.9866 9.34182 13.2755 9.37305C12.567 9.40429 12.08 9.51896 11.6581 9.68297C11.21 9.85227 10.8089 10.1127 10.4755 10.454C10.1369 10.7874 9.87386 11.1911 9.7071 11.6339C9.54298 12.0585 9.42842 12.5429 9.39718 13.2514C9.3633 13.9651 9.35547 14.1917 9.35547 16.002C9.35547 17.8122 9.3633 18.0388 9.39454 18.7499C9.42577 19.4583 9.54044 19.9454 9.70456 20.3674C9.87386 20.8154 10.1369 21.2165 10.4755 21.5499C10.8089 21.8885 11.2126 22.1516 11.6554 22.3183C12.08 22.4824 12.5644 22.597 13.273 22.6282C13.984 22.6595 14.2106 22.6673 16.0209 22.6673C17.8311 22.6673 18.0577 22.6595 18.7688 22.6282C19.4773 22.597 19.9643 22.4824 20.3863 22.3183C21.2823 21.9718 21.9908 21.2634 22.3372 20.3674C22.5012 19.9428 22.6159 19.4583 22.6471 18.7499C22.6784 18.0388 22.6862 17.8122 22.6862 16.002C22.6862 14.1917 22.6836 13.9651 22.6523 13.254ZM21.4516 18.6978C21.4229 19.349 21.3136 19.7006 21.2224 19.935C20.9984 20.5159 20.5373 20.9769 19.9565 21.2009C19.7221 21.2921 19.3679 21.4015 18.7193 21.4301C18.016 21.4614 17.8051 21.4691 16.0261 21.4691C14.2471 21.4691 14.0335 21.4614 13.3328 21.4301C12.6816 21.4015 12.33 21.2921 12.0956 21.2009C11.8065 21.0941 11.5434 20.9248 11.3298 20.7034C11.1084 20.4872 10.9391 20.2267 10.8323 19.9377C10.7411 19.7032 10.6318 19.349 10.6032 18.7004C10.5718 17.9972 10.5641 17.7862 10.5641 16.0071C10.5641 14.2281 10.5718 14.0146 10.6032 13.3139C10.6318 12.6628 10.7411 12.3111 10.8323 12.0767C10.9391 11.7876 11.1084 11.5246 11.3325 11.3109C11.5486 11.0895 11.809 10.9202 12.0982 10.8135C12.3326 10.7223 12.6869 10.6129 13.3354 10.5842C14.0387 10.553 14.2497 10.5452 16.0286 10.5452C17.8103 10.5452 18.0212 10.553 18.7219 10.5842C19.3731 10.6129 19.7247 10.7223 19.9591 10.8135C20.2482 10.9202 20.5113 11.0895 20.7249 11.3109C20.9463 11.5271 21.1156 11.7876 21.2224 12.0767C21.3136 12.3111 21.4229 12.6653 21.4516 13.3139C21.4829 14.0172 21.4907 14.2281 21.4907 16.0071C21.4907 17.7862 21.4829 17.9945 21.4516 18.6978Z" fill="#787A80"/>
<path d="M16.0234 12.5768C14.1325 12.5768 12.5983 14.1109 12.5983 16.002C12.5983 17.893 14.1325 19.4271 16.0234 19.4271C17.9145 19.4271 19.4486 17.893 19.4486 16.002C19.4486 14.1109 17.9145 12.5768 16.0234 12.5768ZM16.0234 18.2238C14.7967 18.2238 13.8016 17.2288 13.8016 16.002C13.8016 14.7751 14.7967 13.7801 16.0234 13.7801C17.2503 13.7801 18.2452 14.7751 18.2452 16.002C18.2452 17.2288 17.2503 18.2238 16.0234 18.2238Z" fill="#787A80"/>
<path d="M20.3837 12.4414C20.3837 12.883 20.0257 13.241 19.584 13.241C19.1424 13.241 18.7844 12.883 18.7844 12.4414C18.7844 11.9997 19.1424 11.6418 19.584 11.6418C20.0257 11.6418 20.3837 11.9997 20.3837 12.4414Z" fill="#787A80"/>
</svg>
