<svg width="32" height="32" viewBox="0 0 32 32" fill="none" xmlns="http://www.w3.org/2000/svg">
<rect opacity="0.12" width="32" height="32" rx="4" fill="#787A80"/>
<path d="M22.662 22.6673L22.6654 22.6668V17.7768C22.6654 15.3845 22.1504 13.5418 19.3537 13.5418C18.0093 13.5418 17.107 14.2795 16.7387 14.979H16.6998V13.7651H14.0481V22.6668H16.8093V18.259C16.8093 17.0984 17.0293 15.9762 18.4665 15.9762C19.8826 15.9762 19.9037 17.3007 19.9037 18.3334V22.6673H22.662Z" fill="#787A80"/>
<path d="M9.55203 13.7657H12.3165V22.6673H9.55203V13.7657Z" fill="#787A80"/>
<path d="M10.9331 9.33398C10.0493 9.33398 9.33203 10.0512 9.33203 10.9351C9.33203 11.819 10.0493 12.5512 10.9331 12.5512C11.817 12.5512 12.5343 11.819 12.5343 10.9351C12.5337 10.0512 11.8165 9.33398 10.9331 9.33398Z" fill="#787A80"/>
</svg>
