<svg width="16" height="17" viewBox="0 0 16 17" fill="none" xmlns="http://www.w3.org/2000/svg">
<path fill-rule="evenodd" clip-rule="evenodd" d="M8.52152 3.28175C8.17922 3.18907 7.81843 3.18907 7.47613 3.28175C7.11977 3.37824 6.77418 3.63102 5.78864 4.39755L4.05531 5.7457C3.42101 6.23904 3.20806 6.41201 3.05752 6.61554C2.91286 6.81113 2.8051 7.03146 2.73952 7.26573C2.67129 7.50951 2.66549 7.7838 2.66549 8.58737V13.0006C2.66549 13.5143 2.67273 13.6234 2.6942 13.6941C2.75883 13.9072 2.92557 14.0739 3.13864 14.1386C3.20942 14.16 3.31847 14.1673 3.83216 14.1673H4.24883C4.33412 14.1673 4.35265 14.1671 4.36487 14.1665C4.70734 14.1496 4.9812 13.8758 4.99802 13.5333C4.99863 13.5211 4.99883 13.5026 4.99883 13.4173V11.5006C4.99883 9.84376 6.34197 8.50061 7.99883 8.50061C9.65568 8.50061 10.9988 9.84375 10.9988 11.5006V13.4173C10.9988 13.5026 10.999 13.5211 10.9996 13.5333C11.0165 13.8758 11.2903 14.1496 11.6328 14.1665C11.645 14.1671 11.6635 14.1673 11.7488 14.1673H12.1655C12.6792 14.1673 12.7882 14.16 12.859 14.1386C13.0721 14.0739 13.2388 13.9072 13.3035 13.6941C13.3249 13.6234 13.3322 13.5143 13.3322 13.0006V8.58737C13.3322 7.7838 13.3264 7.50951 13.2581 7.26573C13.1926 7.03146 13.0848 6.81113 12.9401 6.61554C12.7896 6.41201 12.5766 6.23904 11.9423 5.7457L10.209 4.39755C9.22348 3.63102 8.87788 3.37824 8.52152 3.28175ZM7.12767 1.99476C7.69817 1.84029 8.29948 1.84029 8.86998 1.99476C9.51884 2.17044 10.0882 2.6137 10.9142 3.25679C10.9514 3.28581 10.9892 3.31525 11.0276 3.34508L12.7609 4.69323C12.7849 4.71186 12.8085 4.73024 12.8319 4.74837C13.3681 5.16514 13.739 5.45346 14.0121 5.82267C14.2532 6.14865 14.4328 6.51589 14.5421 6.90633C14.6659 7.34856 14.6657 7.81839 14.6655 8.49754C14.6655 8.52708 14.6655 8.55702 14.6655 8.58737V13.0006C14.6655 13.0288 14.6655 13.0568 14.6656 13.0845C14.666 13.4653 14.6664 13.7943 14.5794 14.0812C14.3855 14.7204 13.8853 15.2206 13.2461 15.4145C12.9592 15.5015 12.6302 15.5011 12.2494 15.5007C12.2217 15.5006 12.1937 15.5006 12.1655 15.5006L11.7349 15.5006C11.6714 15.5006 11.6169 15.5006 11.5674 15.4982C10.54 15.4477 9.71838 14.6262 9.6679 13.5987C9.66547 13.5492 9.66548 13.4947 9.66549 13.4312L9.66549 11.5006C9.66549 10.5801 8.9193 9.83394 7.99883 9.83394C7.07835 9.83394 6.33216 10.5801 6.33216 11.5006L6.33216 13.4313C6.33218 13.4947 6.33219 13.5492 6.32975 13.5987C6.27928 14.6262 5.4577 15.4477 4.4303 15.4982C4.38074 15.5006 4.32623 15.5006 4.26279 15.5006L3.83216 15.5006C3.80392 15.5006 3.77596 15.5006 3.74828 15.5007C3.36743 15.5011 3.03849 15.5015 2.75159 15.4145C2.11239 15.2206 1.61218 14.7204 1.41828 14.0812C1.33125 13.7943 1.33164 13.4653 1.3321 13.0845C1.33213 13.0568 1.33216 13.0288 1.33216 13.0006V8.58737C1.33216 8.55702 1.33215 8.52708 1.33214 8.49753C1.33191 7.81839 1.33176 7.34856 1.45554 6.90633C1.56483 6.51589 1.74444 6.14865 1.98554 5.82267C2.25862 5.45346 2.62957 5.16514 3.1658 4.74837C3.18912 4.73024 3.21276 4.71186 3.23672 4.69323L4.97006 3.34508C5.00841 3.31525 5.04622 3.28581 5.0835 3.25678C5.90949 2.6137 6.47881 2.17044 7.12767 1.99476Z" fill="#424551"/>
</svg>
