<svg width="32" height="32" viewBox="0 0 32 32" fill="none" xmlns="http://www.w3.org/2000/svg">
<rect opacity="0.12" width="32" height="32" rx="4" fill="white"/>
<path d="M19.7079 8.66907L17.8564 8.66602C15.7763 8.66602 14.432 10.0827 14.432 12.2755V13.9397H12.5704C12.4096 13.9397 12.2793 14.0737 12.2793 14.2389V16.6502C12.2793 16.8154 12.4097 16.9492 12.5704 16.9492H14.432V23.0336C14.432 23.1989 14.5623 23.3327 14.7232 23.3327H17.152C17.3129 23.3327 17.4432 23.1987 17.4432 23.0336V16.9492H19.6198C19.7807 16.9492 19.911 16.8154 19.911 16.6502L19.9118 14.2389C19.9118 14.1596 19.8811 14.0836 19.8266 14.0275C19.7721 13.9713 19.6978 13.9397 19.6206 13.9397H17.4432V12.5289C17.4432 11.8509 17.6005 11.5066 18.4603 11.5066L19.7076 11.5062C19.8683 11.5062 19.9986 11.3722 19.9986 11.2071V8.96813C19.9986 8.80319 19.8685 8.66937 19.7079 8.66907Z" fill="white"/>
</svg>
