<svg width="32" height="32" viewBox="0 0 32 32" fill="none" xmlns="http://www.w3.org/2000/svg">
<rect opacity="0.12" width="32" height="32" rx="4" fill="white"/>
<path d="M22.6543 13.254C22.623 12.5456 22.5085 12.0585 22.3444 11.6365C22.1751 11.1885 21.9146 10.7874 21.5733 10.454C21.2399 10.1154 20.8362 9.85227 20.3934 9.68562C19.9689 9.5215 19.4844 9.40694 18.776 9.3757C18.0622 9.34182 17.8356 9.33398 16.0254 9.33398C14.2151 9.33398 13.9885 9.34182 13.2775 9.37305C12.569 9.40429 12.0819 9.51896 11.66 9.68297C11.2119 9.85227 10.8108 10.1127 10.4774 10.454C10.1388 10.7874 9.87581 11.1911 9.70905 11.6339C9.54494 12.0585 9.43037 12.5429 9.39914 13.2514C9.36526 13.9651 9.35742 14.1917 9.35742 16.002C9.35742 17.8122 9.36526 18.0388 9.39649 18.7499C9.42773 19.4583 9.54239 19.9454 9.70651 20.3674C9.87581 20.8154 10.1388 21.2165 10.4774 21.5499C10.8108 21.8885 11.2146 22.1516 11.6574 22.3183C12.0819 22.4824 12.5664 22.597 13.2749 22.6282C13.9859 22.6595 14.2126 22.6673 16.0228 22.6673C17.8331 22.6673 18.0597 22.6595 18.7708 22.6282C19.4792 22.597 19.9663 22.4824 20.3882 22.3183C21.2843 21.9718 21.9927 21.2634 22.3392 20.3674C22.5032 19.9428 22.6178 19.4583 22.6491 18.7499C22.6803 18.0388 22.6882 17.8122 22.6882 16.002C22.6882 14.1917 22.6855 13.9651 22.6543 13.254ZM21.4536 18.6978C21.4249 19.349 21.3155 19.7006 21.2243 19.935C21.0003 20.5159 20.5393 20.9769 19.9584 21.2009C19.724 21.2921 19.3698 21.4015 18.7212 21.4301C18.018 21.4614 17.807 21.4691 16.028 21.4691C14.249 21.4691 14.0355 21.4614 13.3347 21.4301C12.6836 21.4015 12.3319 21.2921 12.0975 21.2009C11.8085 21.0941 11.5453 20.9248 11.3318 20.7034C11.1104 20.4872 10.9411 20.2267 10.8343 19.9377C10.7431 19.7032 10.6337 19.349 10.6051 18.7004C10.5738 17.9972 10.5661 17.7862 10.5661 16.0071C10.5661 14.2281 10.5738 14.0146 10.6051 13.3139C10.6337 12.6628 10.7431 12.3111 10.8343 12.0767C10.9411 11.7876 11.1104 11.5246 11.3344 11.3109C11.5505 11.0895 11.811 10.9202 12.1002 10.8135C12.3346 10.7223 12.6889 10.6129 13.3374 10.5842C14.0406 10.553 14.2517 10.5452 16.0306 10.5452C17.8122 10.5452 18.0231 10.553 18.7239 10.5842C19.375 10.6129 19.7267 10.7223 19.9611 10.8135C20.2501 10.9202 20.5133 11.0895 20.7268 11.3109C20.9482 11.5271 21.1175 11.7876 21.2243 12.0767C21.3155 12.3111 21.4249 12.6653 21.4536 13.3139C21.4848 14.0172 21.4926 14.2281 21.4926 16.0071C21.4926 17.7862 21.4848 17.9945 21.4536 18.6978Z" fill="white"/>
<path d="M16.0254 12.5768C14.1344 12.5768 12.6002 14.1109 12.6002 16.002C12.6002 17.893 14.1344 19.4271 16.0254 19.4271C17.9164 19.4271 19.4505 17.893 19.4505 16.002C19.4505 14.1109 17.9164 12.5768 16.0254 12.5768ZM16.0254 18.2238C14.7986 18.2238 13.8036 17.2288 13.8036 16.002C13.8036 14.7751 14.7986 13.7801 16.0254 13.7801C17.2522 13.7801 18.2472 14.7751 18.2472 16.002C18.2472 17.2288 17.2522 18.2238 16.0254 18.2238Z" fill="white"/>
<path d="M20.3857 12.4414C20.3857 12.883 20.0276 13.241 19.586 13.241C19.1444 13.241 18.7864 12.883 18.7864 12.4414C18.7864 11.9997 19.1444 11.6418 19.586 11.6418C20.0276 11.6418 20.3857 11.9997 20.3857 12.4414Z" fill="white"/>
</svg>
