<svg width="32" height="32" viewBox="0 0 32 32" fill="none" xmlns="http://www.w3.org/2000/svg">
<rect opacity="0.12" width="32" height="32" rx="4" fill="white"/>
<path d="M16.2009 8.66602C12.1521 8.66663 10 11.2425 10 14.0512C10 15.3535 10.733 16.9785 11.9066 17.4936C12.2413 17.6434 12.197 17.4606 12.4851 16.3667C12.5078 16.2757 12.4961 16.1968 12.4223 16.1119C10.7447 14.185 12.0949 10.2238 15.9615 10.2238C21.5575 10.2238 20.5119 17.9129 16.9351 17.9129C16.0132 17.9129 15.3264 17.1942 15.5437 16.305C15.8071 15.2459 16.3228 14.1074 16.3228 13.3441C16.3228 11.4203 13.4365 11.7057 13.4365 14.2547C13.4365 15.0424 13.7171 15.5741 13.7171 15.5741C13.7171 15.5741 12.7885 19.2995 12.6161 19.9956C12.3244 21.1738 12.6555 23.0811 12.6844 23.2455C12.7023 23.3359 12.8045 23.3647 12.8617 23.2901C12.9534 23.1709 14.0759 21.5808 14.3904 20.4313C14.5048 20.0127 14.9744 18.3138 14.9744 18.3138C15.284 18.8687 16.1763 19.3331 17.1271 19.3331C19.9556 19.3331 22 16.8642 22 13.8006C21.9902 10.8636 19.4589 8.66602 16.2009 8.66602V8.66602Z" fill="white"/>
</svg>
