<svg width="32" height="32" viewBox="0 0 32 32" fill="none" xmlns="http://www.w3.org/2000/svg">
<rect opacity="0.12" width="32" height="32" rx="4" fill="white"/>
<path d="M23 11.8489C22.4847 12.0675 21.9318 12.2158 21.3509 12.282C21.9441 11.9419 22.3981 11.4024 22.6133 10.7616C22.0569 11.0765 21.4428 11.3052 20.7884 11.4292C20.2644 10.8939 19.519 10.5605 18.6923 10.5605C17.1062 10.5605 15.8202 11.7919 15.8202 13.3098C15.8202 13.5251 15.8456 13.7353 15.8946 13.9364C13.508 13.8216 11.3918 12.7268 9.97543 11.0631C9.72784 11.4686 9.58699 11.941 9.58699 12.4453C9.58699 13.3994 10.0944 14.2413 10.8643 14.7338C10.3936 14.7187 9.95093 14.5948 9.56339 14.3887V14.423C9.56339 15.7549 10.5537 16.8665 11.8668 17.1195C11.6262 17.1815 11.3725 17.2158 11.1101 17.2158C10.9246 17.2158 10.7453 17.1982 10.5694 17.1647C10.9351 18.2579 11.9954 19.0528 13.2517 19.0746C12.2693 19.8118 11.0305 20.2499 9.68499 20.2499C9.45317 20.2499 9.22482 20.2365 9 20.2122C10.2711 20.9937 11.7802 21.4494 13.4022 21.4494C18.6853 21.4494 21.5732 17.2594 21.5732 13.6256L21.5635 13.2696C22.1278 12.8842 22.6159 12.4001 23 11.8489Z" fill="white"/>
</svg>
