<svg width="32" height="32" viewBox="0 0 32 32" fill="none" xmlns="http://www.w3.org/2000/svg">
<rect opacity="0.12" width="32" height="32" rx="4" fill="white"/>
<path fill-rule="evenodd" clip-rule="evenodd" d="M22.2602 10.743C22.9455 10.9276 23.4859 11.4679 23.6703 12.1533C24.0131 13.4053 23.9999 16.0149 23.9999 16.0149C23.9999 16.0149 23.9999 18.6112 23.6705 19.8632C23.4859 20.5485 22.9456 21.0889 22.2602 21.2734C21.0081 21.603 16 21.603 16 21.603C16 21.603 11.0049 21.603 9.73974 21.2603C9.05432 21.0758 8.51404 20.5353 8.32947 19.8501C8 18.6112 8 16.0017 8 16.0017C8 16.0017 8 13.4053 8.32947 12.1533C8.51391 11.468 9.0675 10.9144 9.73962 10.73C10.9917 10.4004 15.9998 10.4004 15.9998 10.4004C15.9998 10.4004 21.0081 10.4004 22.2602 10.743ZM18.5699 16.0015L14.4052 18.4001V13.6028L18.5699 16.0015Z" fill="white"/>
</svg>
